<?xml version="1.0" encoding="utf-8"?>
<!-- Generator: Adobe Illustrator 18.0.0, SVG Export Plug-In . SVG Version: 6.00 Build 0)  -->
<!DOCTYPE svg PUBLIC "-//W3C//DTD SVG 1.1//EN" "http://www.w3.org/Graphics/SVG/1.1/DTD/svg11.dtd">
<svg version="1.1" id="Layer_Dotted_Line" xmlns="http://www.w3.org/2000/svg" xmlns:xlink="http://www.w3.org/1999/xlink" x="0px" y="0px"
	 viewBox="0 0 150 10" enable-background="new 0 0 150 10" xml:space="preserve">
<g>
	<g>
		<path d="M126.9,6.8c2.6,0,5.1,0,7.7-0.1c1.9,0,1.9-3,0-3c-2.6,0-5.1,0-7.7,0.1C125,3.8,125,6.8,126.9,6.8L126.9,6.8z"/>
	</g>
</g>
<g>
	<g>
		<path d="M106.7,6.7c2.8,0,5.6,0,8.4,0.1c1.9,0,1.9-3,0-3c-2.8,0-5.6,0-8.4-0.1C104.8,3.7,104.8,6.7,106.7,6.7L106.7,6.7z"/>
	</g>
</g>
<g>
	<g>
		<path d="M90.7,6.5c1.4,0,2.8,0,4.2,0.1c1.9,0,1.9-3,0-3c-1.4,0-2.8,0-4.2-0.1C88.7,3.5,88.7,6.5,90.7,6.5L90.7,6.5z"/>
	</g>
</g>
<g>
	<g>
		<path d="M72.6,6.2c2.1,0,4.2,0.1,6.3,0.1c1.9,0,1.9-3,0-3c-2.1,0-4.2-0.1-6.3-0.1C70.6,3.1,70.6,6.1,72.6,6.2L72.6,6.2z"/>
	</g>
</g>
<g>
	<g>
		<path d="M53.1,5.8c2.6,0,5.1,0.1,7.7,0.1c1.9,0,1.9-3,0-3c-2.6,0-5.1-0.1-7.7-0.1C51.1,2.8,51.1,5.8,53.1,5.8L53.1,5.8z"/>
	</g>
</g>
<g>
	<g>
		<path d="M37,5.6c1.6,0,3.3,0,4.9,0c1.9,0,1.9-3,0-3c-1.6,0-3.3,0-4.9,0C35.1,2.6,35.1,5.6,37,5.6L37,5.6z"/>
	</g>
</g>
<g>
	<g>
		<path d="M22.1,5.6c1.4,0,2.7,0,4.1,0c1.9,0,1.9-3,0-3c-1.4,0-2.7,0-4.1,0C20.1,2.6,20.1,5.6,22.1,5.6L22.1,5.6z"/>
	</g>
</g>
<g>
	<g>
		<path d="M4.5,5.5c2.1,0,4.3,0,6.4,0c1.9,0,1.9-3,0-3c-2.1,0-4.3,0-6.4,0C2.5,2.4,2.5,5.4,4.5,5.5L4.5,5.5z"/>
	</g>
</g>
</svg>
